<?xml version="1.0" encoding="UTF-8" standalone="no"?>
<!DOCTYPE svg PUBLIC "-//W3C//DTD SVG 1.1//EN"
 "http://www.w3.org/Graphics/SVG/1.1/DTD/svg11.dtd">
<!-- Generated by graphviz version 10.0.1 (0)
 -->
<!-- Pages: 1 -->
<svg width="727pt" height="332pt"
 viewBox="0.00 0.00 726.88 332.00" xmlns="http://www.w3.org/2000/svg" xmlns:xlink="http://www.w3.org/1999/xlink">
<g id="graph0" class="graph" transform="scale(1 1) rotate(0) translate(4 328)">
<polygon fill="white" stroke="none" points="-4,4 -4,-328 722.88,-328 722.88,4 -4,4"/>
<!-- препод -->
<g id="node1" class="node">
<title>препод</title>
<ellipse fill="none" stroke="black" cx="316.68" cy="-306" rx="47.53" ry="18"/>
<text text-anchor="middle" x="316.68" y="-301.32" font-family="Times,serif" font-size="14.00">препод</text>
</g>
<!-- физик -->
<g id="node2" class="node">
<title>физик</title>
<ellipse fill="none" stroke="black" cx="254.68" cy="-234" rx="43.32" ry="18"/>
<text text-anchor="middle" x="254.68" y="-229.32" font-family="Times,serif" font-size="14.00">физик</text>
</g>
<!-- препод&#45;&gt;физик -->
<g id="edge1" class="edge">
<title>препод&#45;&gt;физик</title>
<path fill="none" stroke="black" d="M301.98,-288.41C294.31,-279.74 284.77,-268.97 276.27,-259.38"/>
<polygon fill="black" stroke="black" points="279.09,-257.29 269.84,-252.12 273.85,-261.93 279.09,-257.29"/>
</g>
<!-- животное -->
<g id="node10" class="node">
<title>животное</title>
<ellipse fill="none" stroke="black" cx="377.68" cy="-234" rx="61.2" ry="18"/>
<text text-anchor="middle" x="377.68" y="-229.32" font-family="Times,serif" font-size="14.00">животное</text>
</g>
<!-- препод&#45;&gt;животное -->
<g id="edge8" class="edge">
<title>препод&#45;&gt;животное</title>
<path fill="none" stroke="black" d="M331.13,-288.41C338.4,-280.08 347.35,-269.8 355.47,-260.49"/>
<polygon fill="black" stroke="black" points="357.98,-262.94 361.91,-253.1 352.7,-258.34 357.98,-262.94"/>
</g>
<!-- Лабник -->
<g id="node3" class="node">
<title>Лабник</title>
<ellipse fill="none" stroke="black" cx="150.68" cy="-162" rx="50.16" ry="18"/>
<text text-anchor="middle" x="150.68" y="-157.32" font-family="Times,serif" font-size="14.00">Лабник</text>
</g>
<!-- физик&#45;&gt;Лабник -->
<g id="edge2" class="edge">
<title>физик&#45;&gt;Лабник</title>
<path fill="none" stroke="black" d="M232.62,-218.15C218.07,-208.36 198.77,-195.37 182.55,-184.45"/>
<polygon fill="black" stroke="black" points="184.93,-181.83 174.68,-179.15 181.02,-187.64 184.93,-181.83"/>
</g>
<!-- ведет -->
<g id="node6" class="node">
<title>ведет</title>
<ellipse fill="none" stroke="black" cx="258.68" cy="-162" rx="39.63" ry="18"/>
<text text-anchor="middle" x="258.68" y="-157.32" font-family="Times,serif" font-size="14.00">ведет</text>
</g>
<!-- физик&#45;&gt;ведет -->
<g id="edge5" class="edge">
<title>физик&#45;&gt;ведет</title>
<path fill="none" stroke="black" d="M255.67,-215.7C256.08,-208.41 256.58,-199.73 257.05,-191.54"/>
<polygon fill="black" stroke="black" points="260.54,-191.8 257.61,-181.62 253.55,-191.4 260.54,-191.8"/>
</g>
<!-- Бабинцев -->
<g id="node4" class="node">
<title>Бабинцев</title>
<ellipse fill="none" stroke="black" cx="60.68" cy="-90" rx="60.68" ry="18"/>
<text text-anchor="middle" x="60.68" y="-85.33" font-family="Times,serif" font-size="14.00">Бабинцев</text>
</g>
<!-- Лабник&#45;&gt;Бабинцев -->
<g id="edge3" class="edge">
<title>Лабник&#45;&gt;Бабинцев</title>
<path fill="none" stroke="black" d="M130.26,-145.12C118.57,-136.03 103.7,-124.46 90.7,-114.35"/>
<polygon fill="black" stroke="black" points="92.88,-111.61 82.84,-108.24 88.58,-117.14 92.88,-111.61"/>
</g>
<!-- Овчос -->
<g id="node5" class="node">
<title>Овчос</title>
<ellipse fill="none" stroke="black" cx="181.68" cy="-90" rx="42.26" ry="18"/>
<text text-anchor="middle" x="181.68" y="-85.33" font-family="Times,serif" font-size="14.00">Овчос</text>
</g>
<!-- Лабник&#45;&gt;Овчос -->
<g id="edge4" class="edge">
<title>Лабник&#45;&gt;Овчос</title>
<path fill="none" stroke="black" d="M158.18,-144.05C161.61,-136.32 165.75,-126.96 169.6,-118.27"/>
<polygon fill="black" stroke="black" points="172.78,-119.73 173.63,-109.17 166.38,-116.9 172.78,-119.73"/>
</g>
<!-- ангем -->
<g id="node7" class="node">
<title>ангем</title>
<ellipse fill="none" stroke="black" cx="587.68" cy="-306" rx="42.26" ry="18"/>
<text text-anchor="middle" x="587.68" y="-301.32" font-family="Times,serif" font-size="14.00">ангем</text>
</g>
<!-- Стукопин -->
<g id="node8" class="node">
<title>Стукопин</title>
<ellipse fill="none" stroke="black" cx="517.68" cy="-234" rx="60.68" ry="18"/>
<text text-anchor="middle" x="517.68" y="-229.32" font-family="Times,serif" font-size="14.00">Стукопин</text>
</g>
<!-- ангем&#45;&gt;Стукопин -->
<g id="edge6" class="edge">
<title>ангем&#45;&gt;Стукопин</title>
<path fill="none" stroke="black" d="M571.79,-289.12C562.97,-280.29 551.81,-269.13 541.92,-259.24"/>
<polygon fill="black" stroke="black" points="544.6,-256.97 535.06,-252.38 539.65,-261.92 544.6,-256.97"/>
</g>
<!-- Петрович -->
<g id="node9" class="node">
<title>Петрович</title>
<ellipse fill="none" stroke="black" cx="657.68" cy="-234" rx="61.2" ry="18"/>
<text text-anchor="middle" x="657.68" y="-229.32" font-family="Times,serif" font-size="14.00">Петрович</text>
</g>
<!-- ангем&#45;&gt;Петрович -->
<g id="edge7" class="edge">
<title>ангем&#45;&gt;Петрович</title>
<path fill="none" stroke="black" d="M603.56,-289.12C612.26,-280.42 623.23,-269.45 633.02,-259.66"/>
<polygon fill="black" stroke="black" points="635.21,-262.41 639.81,-252.87 630.26,-257.46 635.21,-262.41"/>
</g>
<!-- гавкает -->
<g id="node11" class="node">
<title>гавкает</title>
<ellipse fill="none" stroke="black" cx="374.68" cy="-162" rx="51.21" ry="18"/>
<text text-anchor="middle" x="374.68" y="-157.32" font-family="Times,serif" font-size="14.00">гавкает</text>
</g>
<!-- животное&#45;&gt;гавкает -->
<g id="edge9" class="edge">
<title>животное&#45;&gt;гавкает</title>
<path fill="none" stroke="black" d="M376.94,-215.7C376.62,-208.41 376.25,-199.73 375.9,-191.54"/>
<polygon fill="black" stroke="black" points="379.4,-191.46 375.48,-181.62 372.41,-191.76 379.4,-191.46"/>
</g>
<!-- абобус -->
<g id="node16" class="node">
<title>абобус</title>
<ellipse fill="none" stroke="black" cx="489.68" cy="-162" rx="45.42" ry="18"/>
<text text-anchor="middle" x="489.68" y="-157.32" font-family="Times,serif" font-size="14.00">абобус</text>
</g>
<!-- животное&#45;&gt;абобус -->
<g id="edge14" class="edge">
<title>животное&#45;&gt;абобус</title>
<path fill="none" stroke="black" d="M402.81,-217.29C418.66,-207.38 439.31,-194.48 456.5,-183.74"/>
<polygon fill="black" stroke="black" points="458.25,-186.77 464.87,-178.5 454.54,-180.83 458.25,-186.77"/>
</g>
<!-- Собака -->
<g id="node12" class="node">
<title>Собака</title>
<ellipse fill="none" stroke="black" cx="343.68" cy="-90" rx="48.05" ry="18"/>
<text text-anchor="middle" x="343.68" y="-85.33" font-family="Times,serif" font-size="14.00">Собака</text>
</g>
<!-- гавкает&#45;&gt;Собака -->
<g id="edge10" class="edge">
<title>гавкает&#45;&gt;Собака</title>
<path fill="none" stroke="black" d="M367.17,-144.05C363.75,-136.32 359.6,-126.96 355.75,-118.27"/>
<polygon fill="black" stroke="black" points="358.98,-116.9 351.73,-109.17 352.58,-119.73 358.98,-116.9"/>
</g>
<!-- мяукает -->
<g id="node13" class="node">
<title>мяукает</title>
<ellipse fill="none" stroke="black" cx="463.68" cy="-90" rx="54.36" ry="18"/>
<text text-anchor="middle" x="463.68" y="-85.33" font-family="Times,serif" font-size="14.00">мяукает</text>
</g>
<!-- гавкает&#45;&gt;мяукает -->
<g id="edge11" class="edge">
<title>гавкает&#45;&gt;мяукает</title>
<path fill="none" stroke="black" d="M394.87,-145.12C406.51,-135.96 421.35,-124.29 434.26,-114.13"/>
<polygon fill="black" stroke="black" points="436.37,-116.93 442.06,-108 432.04,-111.43 436.37,-116.93"/>
</g>
<!-- Кот -->
<g id="node14" class="node">
<title>Кот</title>
<ellipse fill="none" stroke="black" cx="422.68" cy="-18" rx="29.64" ry="18"/>
<text text-anchor="middle" x="422.68" y="-13.32" font-family="Times,serif" font-size="14.00">Кот</text>
</g>
<!-- мяукает&#45;&gt;Кот -->
<g id="edge12" class="edge">
<title>мяукает&#45;&gt;Кот</title>
<path fill="none" stroke="black" d="M453.75,-72.05C449,-63.94 443.2,-54.04 437.91,-45.01"/>
<polygon fill="black" stroke="black" points="441.07,-43.47 432.99,-36.61 435.03,-47.01 441.07,-43.47"/>
</g>
<!-- Гусь -->
<g id="node15" class="node">
<title>Гусь</title>
<ellipse fill="none" stroke="black" cx="503.68" cy="-18" rx="33.85" ry="18"/>
<text text-anchor="middle" x="503.68" y="-13.32" font-family="Times,serif" font-size="14.00">Гусь</text>
</g>
<!-- мяукает&#45;&gt;Гусь -->
<g id="edge13" class="edge">
<title>мяукает&#45;&gt;Гусь</title>
<path fill="none" stroke="black" d="M473.36,-72.05C477.95,-64.03 483.53,-54.26 488.65,-45.3"/>
<polygon fill="black" stroke="black" points="491.69,-47.04 493.61,-36.62 485.61,-43.57 491.69,-47.04"/>
</g>
</g>
</svg>
