<?xml version="1.0" encoding="UTF-8" standalone="no"?>
<!DOCTYPE svg PUBLIC "-//W3C//DTD SVG 1.1//EN"
 "http://www.w3.org/Graphics/SVG/1.1/DTD/svg11.dtd">
<!-- Generated by graphviz version 10.0.1 (0)
 -->
<!-- Pages: 1 -->
<svg width="2510pt" height="908pt"
 viewBox="0.00 0.00 2510.07 908.00" xmlns="http://www.w3.org/2000/svg" xmlns:xlink="http://www.w3.org/1999/xlink">
<g id="graph0" class="graph" transform="scale(1 1) rotate(0) translate(4 904)">
<polygon fill="white" stroke="none" points="-4,4 -4,-904 2506.07,-904 2506.07,4 -4,4"/>
<!-- Препод -->
<g id="node1" class="node">
<title>Препод</title>
<ellipse fill="none" stroke="black" cx="629.98" cy="-882" rx="39.59" ry="18"/>
<text text-anchor="middle" x="629.98" y="-876.58" font-family="Times,serif" font-size="14.00">Препод</text>
</g>
<!-- Физик -->
<g id="node2" class="node">
<title>Физик</title>
<ellipse fill="none" stroke="black" cx="487.98" cy="-810" rx="35.6" ry="18"/>
<text text-anchor="middle" x="487.98" y="-804.58" font-family="Times,serif" font-size="14.00">Физик</text>
</g>
<!-- Препод&#45;&gt;Физик -->
<g id="edge1" class="edge">
<title>Препод&#45;&gt;Физик</title>
<path fill="none" stroke="black" d="M603.93,-868.16C581.23,-856.97 548.12,-840.65 523.08,-828.31"/>
<polygon fill="black" stroke="black" points="524.78,-825.24 514.26,-823.96 521.68,-831.52 524.78,-825.24"/>
</g>
<!-- Животное -->
<g id="node17" class="node">
<title>Животное</title>
<ellipse fill="none" stroke="black" cx="791.98" cy="-810" rx="50.56" ry="18"/>
<text text-anchor="middle" x="791.98" y="-804.58" font-family="Times,serif" font-size="14.00">Животное</text>
</g>
<!-- Препод&#45;&gt;Животное -->
<g id="edge16" class="edge">
<title>Препод&#45;&gt;Животное</title>
<path fill="none" stroke="black" d="M657.82,-868.97C683.28,-857.97 721.29,-841.54 750.35,-828.98"/>
<polygon fill="black" stroke="black" points="751.44,-832.33 759.23,-825.15 748.66,-825.9 751.44,-832.33"/>
</g>
<!-- Лабник -->
<g id="node3" class="node">
<title>Лабник</title>
<ellipse fill="none" stroke="black" cx="258.98" cy="-738" rx="39.59" ry="18"/>
<text text-anchor="middle" x="258.98" y="-732.58" font-family="Times,serif" font-size="14.00">Лабник</text>
</g>
<!-- Физик&#45;&gt;Лабник -->
<g id="edge2" class="edge">
<title>Физик&#45;&gt;Лабник</title>
<path fill="none" stroke="black" d="M458.04,-799.85C418.25,-787.69 347.68,-766.12 302.14,-752.19"/>
<polygon fill="black" stroke="black" points="303.17,-748.85 292.58,-749.27 301.12,-755.54 303.17,-748.85"/>
</g>
<!-- Ведет ангем -->
<g id="node8" class="node">
<title>Ведет ангем</title>
<ellipse fill="none" stroke="black" cx="487.98" cy="-738" rx="58.05" ry="18"/>
<text text-anchor="middle" x="487.98" y="-732.58" font-family="Times,serif" font-size="14.00">Ведет ангем</text>
</g>
<!-- Физик&#45;&gt;Ведет ангем -->
<g id="edge7" class="edge">
<title>Физик&#45;&gt;Ведет ангем</title>
<path fill="none" stroke="black" d="M487.98,-791.7C487.98,-784.41 487.98,-775.73 487.98,-767.54"/>
<polygon fill="black" stroke="black" points="491.48,-767.62 487.98,-757.62 484.48,-767.62 491.48,-767.62"/>
</g>
<!-- Бабинцев -->
<g id="node4" class="node">
<title>Бабинцев</title>
<ellipse fill="none" stroke="black" cx="143.98" cy="-666" rx="48.07" ry="18"/>
<text text-anchor="middle" x="143.98" y="-660.58" font-family="Times,serif" font-size="14.00">Бабинцев</text>
</g>
<!-- Лабник&#45;&gt;Бабинцев -->
<g id="edge3" class="edge">
<title>Лабник&#45;&gt;Бабинцев</title>
<path fill="none" stroke="black" d="M235.98,-723C219.42,-712.92 196.81,-699.16 178.14,-687.8"/>
<polygon fill="black" stroke="black" points="180.18,-684.94 169.81,-682.73 176.54,-690.92 180.18,-684.94"/>
</g>
<!-- Женщина -->
<g id="node5" class="node">
<title>Женщина</title>
<ellipse fill="none" stroke="black" cx="258.98" cy="-666" rx="49.07" ry="18"/>
<text text-anchor="middle" x="258.98" y="-660.58" font-family="Times,serif" font-size="14.00">Женщина</text>
</g>
<!-- Лабник&#45;&gt;Женщина -->
<g id="edge4" class="edge">
<title>Лабник&#45;&gt;Женщина</title>
<path fill="none" stroke="black" d="M258.98,-719.7C258.98,-712.41 258.98,-703.73 258.98,-695.54"/>
<polygon fill="black" stroke="black" points="262.48,-695.62 258.98,-685.62 255.48,-695.62 262.48,-695.62"/>
</g>
<!-- Ирина Владимировна -->
<g id="node6" class="node">
<title>Ирина Владимировна</title>
<ellipse fill="none" stroke="black" cx="94.98" cy="-594" rx="94.98" ry="18"/>
<text text-anchor="middle" x="94.98" y="-588.58" font-family="Times,serif" font-size="14.00">Ирина Владимировна</text>
</g>
<!-- Женщина&#45;&gt;Ирина Владимировна -->
<g id="edge5" class="edge">
<title>Женщина&#45;&gt;Ирина Владимировна</title>
<path fill="none" stroke="black" d="M227.74,-651.67C203.79,-641.44 170.3,-627.15 142.95,-615.48"/>
<polygon fill="black" stroke="black" points="144.38,-612.28 133.81,-611.58 141.63,-618.72 144.38,-612.28"/>
</g>
<!-- Овчинкин -->
<g id="node7" class="node">
<title>Овчинкин</title>
<ellipse fill="none" stroke="black" cx="258.98" cy="-594" rx="50.56" ry="18"/>
<text text-anchor="middle" x="258.98" y="-588.58" font-family="Times,serif" font-size="14.00">Овчинкин</text>
</g>
<!-- Женщина&#45;&gt;Овчинкин -->
<g id="edge6" class="edge">
<title>Женщина&#45;&gt;Овчинкин</title>
<path fill="none" stroke="black" d="M258.98,-647.7C258.98,-640.41 258.98,-631.73 258.98,-623.54"/>
<polygon fill="black" stroke="black" points="262.48,-623.62 258.98,-613.62 255.48,-623.62 262.48,-623.62"/>
</g>
<!-- Ведет лекции у нас -->
<g id="node9" class="node">
<title>Ведет лекции у нас</title>
<ellipse fill="none" stroke="black" cx="418.98" cy="-666" rx="85.99" ry="18"/>
<text text-anchor="middle" x="418.98" y="-660.58" font-family="Times,serif" font-size="14.00">Ведет лекции у нас</text>
</g>
<!-- Ведет ангем&#45;&gt;Ведет лекции у нас -->
<g id="edge8" class="edge">
<title>Ведет ангем&#45;&gt;Ведет лекции у нас</title>
<path fill="none" stroke="black" d="M471.62,-720.41C463.24,-711.91 452.86,-701.37 443.53,-691.91"/>
<polygon fill="black" stroke="black" points="446.26,-689.7 436.75,-685.03 441.28,-694.61 446.26,-689.7"/>
</g>
<!-- Ведет айлаб -->
<g id="node12" class="node">
<title>Ведет айлаб</title>
<ellipse fill="none" stroke="black" cx="580.98" cy="-666" rx="57.55" ry="18"/>
<text text-anchor="middle" x="580.98" y="-660.58" font-family="Times,serif" font-size="14.00">Ведет айлаб</text>
</g>
<!-- Ведет ангем&#45;&gt;Ведет айлаб -->
<g id="edge11" class="edge">
<title>Ведет ангем&#45;&gt;Ведет айлаб</title>
<path fill="none" stroke="black" d="M509.08,-721.12C521.36,-711.87 537.05,-700.07 550.63,-689.84"/>
<polygon fill="black" stroke="black" points="552.54,-692.78 558.42,-683.97 548.33,-687.19 552.54,-692.78"/>
</g>
<!-- Чубаров -->
<g id="node10" class="node">
<title>Чубаров</title>
<ellipse fill="none" stroke="black" cx="370.98" cy="-594" rx="43.58" ry="18"/>
<text text-anchor="middle" x="370.98" y="-588.58" font-family="Times,serif" font-size="14.00">Чубаров</text>
</g>
<!-- Ведет лекции у нас&#45;&gt;Чубаров -->
<g id="edge9" class="edge">
<title>Ведет лекции у нас&#45;&gt;Чубаров</title>
<path fill="none" stroke="black" d="M407.11,-647.7C401.56,-639.61 394.85,-629.81 388.71,-620.87"/>
<polygon fill="black" stroke="black" points="391.77,-619.14 383.23,-612.87 386,-623.1 391.77,-619.14"/>
</g>
<!-- Стукопин -->
<g id="node11" class="node">
<title>Стукопин</title>
<ellipse fill="none" stroke="black" cx="481.98" cy="-594" rx="49.57" ry="18"/>
<text text-anchor="middle" x="481.98" y="-588.58" font-family="Times,serif" font-size="14.00">Стукопин</text>
</g>
<!-- Ведет лекции у нас&#45;&gt;Стукопин -->
<g id="edge10" class="edge">
<title>Ведет лекции у нас&#45;&gt;Стукопин</title>
<path fill="none" stroke="black" d="M434.23,-648.05C441.84,-639.59 451.2,-629.19 459.62,-619.84"/>
<polygon fill="black" stroke="black" points="462.2,-622.21 466.29,-612.43 457,-617.52 462.2,-622.21"/>
</g>
<!-- Дед -->
<g id="node13" class="node">
<title>Дед</title>
<ellipse fill="none" stroke="black" cx="576.98" cy="-594" rx="27" ry="18"/>
<text text-anchor="middle" x="576.98" y="-588.58" font-family="Times,serif" font-size="14.00">Дед</text>
</g>
<!-- Ведет айлаб&#45;&gt;Дед -->
<g id="edge12" class="edge">
<title>Ведет айлаб&#45;&gt;Дед</title>
<path fill="none" stroke="black" d="M579.99,-647.7C579.57,-640.41 579.07,-631.73 578.61,-623.54"/>
<polygon fill="black" stroke="black" points="582.1,-623.4 578.04,-613.62 575.12,-623.8 582.1,-623.4"/>
</g>
<!-- Ведет теорвер -->
<g id="node14" class="node">
<title>Ведет теорвер</title>
<ellipse fill="none" stroke="black" cx="687.98" cy="-594" rx="65.53" ry="18"/>
<text text-anchor="middle" x="687.98" y="-588.58" font-family="Times,serif" font-size="14.00">Ведет теорвер</text>
</g>
<!-- Ведет айлаб&#45;&gt;Ведет теорвер -->
<g id="edge13" class="edge">
<title>Ведет айлаб&#45;&gt;Ведет теорвер</title>
<path fill="none" stroke="black" d="M604.99,-649.29C619.38,-639.88 637.91,-627.76 653.8,-617.36"/>
<polygon fill="black" stroke="black" points="655.58,-620.37 662.03,-611.97 651.75,-614.52 655.58,-620.37"/>
</g>
<!-- Штепин -->
<g id="node15" class="node">
<title>Штепин</title>
<ellipse fill="none" stroke="black" cx="581.98" cy="-522" rx="42.58" ry="18"/>
<text text-anchor="middle" x="581.98" y="-516.58" font-family="Times,serif" font-size="14.00">Штепин</text>
</g>
<!-- Ведет теорвер&#45;&gt;Штепин -->
<g id="edge14" class="edge">
<title>Ведет теорвер&#45;&gt;Штепин</title>
<path fill="none" stroke="black" d="M663.66,-576.94C648.88,-567.18 629.84,-554.61 613.86,-544.06"/>
<polygon fill="black" stroke="black" points="615.91,-541.21 605.64,-538.62 612.05,-547.06 615.91,-541.21"/>
</g>
<!-- Петрович -->
<g id="node16" class="node">
<title>Петрович</title>
<ellipse fill="none" stroke="black" cx="690.98" cy="-522" rx="48.07" ry="18"/>
<text text-anchor="middle" x="690.98" y="-516.58" font-family="Times,serif" font-size="14.00">Петрович</text>
</g>
<!-- Ведет теорвер&#45;&gt;Петрович -->
<g id="edge15" class="edge">
<title>Ведет теорвер&#45;&gt;Петрович</title>
<path fill="none" stroke="black" d="M688.72,-575.7C689.03,-568.41 689.4,-559.73 689.75,-551.54"/>
<polygon fill="black" stroke="black" points="693.25,-551.76 690.18,-541.62 686.25,-551.46 693.25,-551.76"/>
</g>
<!-- Гавкает -->
<g id="node18" class="node">
<title>Гавкает</title>
<ellipse fill="none" stroke="black" cx="791.98" cy="-738" rx="40.58" ry="18"/>
<text text-anchor="middle" x="791.98" y="-732.58" font-family="Times,serif" font-size="14.00">Гавкает</text>
</g>
<!-- Животное&#45;&gt;Гавкает -->
<g id="edge17" class="edge">
<title>Животное&#45;&gt;Гавкает</title>
<path fill="none" stroke="black" d="M791.98,-791.7C791.98,-784.41 791.98,-775.73 791.98,-767.54"/>
<polygon fill="black" stroke="black" points="795.48,-767.62 791.98,-757.62 788.48,-767.62 795.48,-767.62"/>
</g>
<!-- Это еда -->
<g id="node31" class="node">
<title>Это еда</title>
<ellipse fill="none" stroke="black" cx="1037.98" cy="-738" rx="40.09" ry="18"/>
<text text-anchor="middle" x="1037.98" y="-732.58" font-family="Times,serif" font-size="14.00">Это еда</text>
</g>
<!-- Животное&#45;&gt;Это еда -->
<g id="edge30" class="edge">
<title>Животное&#45;&gt;Это еда</title>
<path fill="none" stroke="black" d="M830.68,-797.99C874.93,-785.39 947.23,-764.82 993.69,-751.6"/>
<polygon fill="black" stroke="black" points="994.51,-755.01 1003.17,-748.91 992.59,-748.28 994.51,-755.01"/>
</g>
<!-- Собака -->
<g id="node19" class="node">
<title>Собака</title>
<ellipse fill="none" stroke="black" cx="741.98" cy="-666" rx="38.09" ry="18"/>
<text text-anchor="middle" x="741.98" y="-660.58" font-family="Times,serif" font-size="14.00">Собака</text>
</g>
<!-- Гавкает&#45;&gt;Собака -->
<g id="edge18" class="edge">
<title>Гавкает&#45;&gt;Собака</title>
<path fill="none" stroke="black" d="M780.13,-720.41C774.21,-712.13 766.92,-701.92 760.31,-692.66"/>
<polygon fill="black" stroke="black" points="763.28,-690.8 754.62,-684.7 757.58,-694.87 763.28,-690.8"/>
</g>
<!-- Мяукает -->
<g id="node20" class="node">
<title>Мяукает</title>
<ellipse fill="none" stroke="black" cx="841.98" cy="-666" rx="44.08" ry="18"/>
<text text-anchor="middle" x="841.98" y="-660.58" font-family="Times,serif" font-size="14.00">Мяукает</text>
</g>
<!-- Гавкает&#45;&gt;Мяукает -->
<g id="edge19" class="edge">
<title>Гавкает&#45;&gt;Мяукает</title>
<path fill="none" stroke="black" d="M803.82,-720.41C809.74,-712.13 817.03,-701.92 823.65,-692.66"/>
<polygon fill="black" stroke="black" points="826.37,-694.87 829.33,-684.7 820.67,-690.8 826.37,-694.87"/>
</g>
<!-- Кот -->
<g id="node21" class="node">
<title>Кот</title>
<ellipse fill="none" stroke="black" cx="798.98" cy="-594" rx="27" ry="18"/>
<text text-anchor="middle" x="798.98" y="-588.58" font-family="Times,serif" font-size="14.00">Кот</text>
</g>
<!-- Мяукает&#45;&gt;Кот -->
<g id="edge20" class="edge">
<title>Мяукает&#45;&gt;Кот</title>
<path fill="none" stroke="black" d="M831.57,-648.05C826.51,-639.82 820.33,-629.76 814.71,-620.61"/>
<polygon fill="black" stroke="black" points="817.71,-618.81 809.49,-612.12 811.74,-622.47 817.71,-618.81"/>
</g>
<!-- Ползает -->
<g id="node22" class="node">
<title>Ползает</title>
<ellipse fill="none" stroke="black" cx="885.98" cy="-594" rx="41.58" ry="18"/>
<text text-anchor="middle" x="885.98" y="-588.58" font-family="Times,serif" font-size="14.00">Ползает</text>
</g>
<!-- Мяукает&#45;&gt;Ползает -->
<g id="edge21" class="edge">
<title>Мяукает&#45;&gt;Ползает</title>
<path fill="none" stroke="black" d="M852.63,-648.05C857.65,-640.06 863.77,-630.33 869.38,-621.4"/>
<polygon fill="black" stroke="black" points="872.26,-623.4 874.62,-613.07 866.33,-619.67 872.26,-623.4"/>
</g>
<!-- Змея -->
<g id="node23" class="node">
<title>Змея</title>
<ellipse fill="none" stroke="black" cx="811.98" cy="-522" rx="30.61" ry="18"/>
<text text-anchor="middle" x="811.98" y="-516.58" font-family="Times,serif" font-size="14.00">Змея</text>
</g>
<!-- Ползает&#45;&gt;Змея -->
<g id="edge22" class="edge">
<title>Ползает&#45;&gt;Змея</title>
<path fill="none" stroke="black" d="M869.18,-577.12C859.36,-567.82 846.79,-555.93 835.94,-545.67"/>
<polygon fill="black" stroke="black" points="838.46,-543.23 828.79,-538.9 833.65,-548.32 838.46,-543.23"/>
</g>
<!-- С ушами -->
<g id="node24" class="node">
<title>С ушами</title>
<ellipse fill="none" stroke="black" cx="906.98" cy="-522" rx="46.07" ry="18"/>
<text text-anchor="middle" x="906.98" y="-516.58" font-family="Times,serif" font-size="14.00">С ушами</text>
</g>
<!-- Ползает&#45;&gt;С ушами -->
<g id="edge23" class="edge">
<title>Ползает&#45;&gt;С ушами</title>
<path fill="none" stroke="black" d="M891.17,-575.7C893.4,-568.24 896.08,-559.32 898.59,-550.97"/>
<polygon fill="black" stroke="black" points="901.89,-552.14 901.41,-541.55 895.18,-550.13 901.89,-552.14"/>
</g>
<!-- Огромный -->
<g id="node25" class="node">
<title>Огромный</title>
<ellipse fill="none" stroke="black" cx="857.98" cy="-450" rx="52.06" ry="18"/>
<text text-anchor="middle" x="857.98" y="-444.57" font-family="Times,serif" font-size="14.00">Огромный</text>
</g>
<!-- С ушами&#45;&gt;Огромный -->
<g id="edge24" class="edge">
<title>С ушами&#45;&gt;Огромный</title>
<path fill="none" stroke="black" d="M895.36,-504.41C889.71,-496.34 882.78,-486.43 876.42,-477.35"/>
<polygon fill="black" stroke="black" points="879.31,-475.38 870.71,-469.2 873.58,-479.4 879.31,-475.38"/>
</g>
<!-- Гусь -->
<g id="node30" class="node">
<title>Гусь</title>
<ellipse fill="none" stroke="black" cx="955.98" cy="-450" rx="28.11" ry="18"/>
<text text-anchor="middle" x="955.98" y="-444.57" font-family="Times,serif" font-size="14.00">Гусь</text>
</g>
<!-- С ушами&#45;&gt;Гусь -->
<g id="edge29" class="edge">
<title>С ушами&#45;&gt;Гусь</title>
<path fill="none" stroke="black" d="M918.59,-504.41C924.47,-496.01 931.74,-485.63 938.29,-476.26"/>
<polygon fill="black" stroke="black" points="941.05,-478.43 943.92,-468.23 935.31,-474.41 941.05,-478.43"/>
</g>
<!-- Слон -->
<g id="node26" class="node">
<title>Слон</title>
<ellipse fill="none" stroke="black" cx="806.98" cy="-378" rx="30.61" ry="18"/>
<text text-anchor="middle" x="806.98" y="-372.57" font-family="Times,serif" font-size="14.00">Слон</text>
</g>
<!-- Огромный&#45;&gt;Слон -->
<g id="edge25" class="edge">
<title>Огромный&#45;&gt;Слон</title>
<path fill="none" stroke="black" d="M845.63,-432.05C839.5,-423.65 831.98,-413.32 825.21,-404.02"/>
<polygon fill="black" stroke="black" points="828.12,-402.07 819.4,-396.05 822.46,-406.2 828.12,-402.07"/>
</g>
<!-- Маленький -->
<g id="node27" class="node">
<title>Маленький</title>
<ellipse fill="none" stroke="black" cx="909.98" cy="-378" rx="54.56" ry="18"/>
<text text-anchor="middle" x="909.98" y="-372.57" font-family="Times,serif" font-size="14.00">Маленький</text>
</g>
<!-- Огромный&#45;&gt;Маленький -->
<g id="edge26" class="edge">
<title>Огромный&#45;&gt;Маленький</title>
<path fill="none" stroke="black" d="M870.56,-432.05C876.63,-423.89 884.04,-413.91 890.79,-404.82"/>
<polygon fill="black" stroke="black" points="893.45,-407.12 896.6,-397 887.83,-402.94 893.45,-407.12"/>
</g>
<!-- Мышь -->
<g id="node28" class="node">
<title>Мышь</title>
<ellipse fill="none" stroke="black" cx="868.98" cy="-306" rx="35.6" ry="18"/>
<text text-anchor="middle" x="868.98" y="-300.57" font-family="Times,serif" font-size="14.00">Мышь</text>
</g>
<!-- Маленький&#45;&gt;Мышь -->
<g id="edge27" class="edge">
<title>Маленький&#45;&gt;Мышь</title>
<path fill="none" stroke="black" d="M900.05,-360.05C895.42,-352.14 889.79,-342.54 884.61,-333.69"/>
<polygon fill="black" stroke="black" points="887.65,-331.95 879.57,-325.1 881.61,-335.49 887.65,-331.95"/>
</g>
<!-- Заяц -->
<g id="node29" class="node">
<title>Заяц</title>
<ellipse fill="none" stroke="black" cx="951.98" cy="-306" rx="29.61" ry="18"/>
<text text-anchor="middle" x="951.98" y="-300.57" font-family="Times,serif" font-size="14.00">Заяц</text>
</g>
<!-- Маленький&#45;&gt;Заяц -->
<g id="edge28" class="edge">
<title>Маленький&#45;&gt;Заяц</title>
<path fill="none" stroke="black" d="M920.14,-360.05C925.01,-351.94 930.95,-342.04 936.37,-333.01"/>
<polygon fill="black" stroke="black" points="939.27,-334.98 941.41,-324.6 933.27,-331.38 939.27,-334.98"/>
</g>
<!-- Фрукт -->
<g id="node32" class="node">
<title>Фрукт</title>
<ellipse fill="none" stroke="black" cx="1037.98" cy="-666" rx="35.1" ry="18"/>
<text text-anchor="middle" x="1037.98" y="-660.58" font-family="Times,serif" font-size="14.00">Фрукт</text>
</g>
<!-- Это еда&#45;&gt;Фрукт -->
<g id="edge31" class="edge">
<title>Это еда&#45;&gt;Фрукт</title>
<path fill="none" stroke="black" d="M1037.98,-719.7C1037.98,-712.41 1037.98,-703.73 1037.98,-695.54"/>
<polygon fill="black" stroke="black" points="1041.48,-695.62 1037.98,-685.62 1034.48,-695.62 1041.48,-695.62"/>
</g>
<!-- Инструмент -->
<g id="node35" class="node">
<title>Инструмент</title>
<ellipse fill="none" stroke="black" cx="1221.98" cy="-666" rx="58.05" ry="18"/>
<text text-anchor="middle" x="1221.98" y="-660.58" font-family="Times,serif" font-size="14.00">Инструмент</text>
</g>
<!-- Это еда&#45;&gt;Инструмент -->
<g id="edge34" class="edge">
<title>Это еда&#45;&gt;Инструмент</title>
<path fill="none" stroke="black" d="M1067.95,-725.6C1097.17,-714.48 1142.02,-697.42 1175.8,-684.57"/>
<polygon fill="black" stroke="black" points="1176.82,-687.92 1184.93,-681.1 1174.33,-681.38 1176.82,-687.92"/>
</g>
<!-- Яблоко -->
<g id="node33" class="node">
<title>Яблоко</title>
<ellipse fill="none" stroke="black" cx="984.98" cy="-594" rx="39.09" ry="18"/>
<text text-anchor="middle" x="984.98" y="-588.58" font-family="Times,serif" font-size="14.00">Яблоко</text>
</g>
<!-- Фрукт&#45;&gt;Яблоко -->
<g id="edge32" class="edge">
<title>Фрукт&#45;&gt;Яблоко</title>
<path fill="none" stroke="black" d="M1025.68,-648.76C1019.26,-640.28 1011.26,-629.71 1004.05,-620.2"/>
<polygon fill="black" stroke="black" points="1006.94,-618.21 998.11,-612.35 1001.36,-622.44 1006.94,-618.21"/>
</g>
<!-- Пельмени -->
<g id="node34" class="node">
<title>Пельмени</title>
<ellipse fill="none" stroke="black" cx="1091.98" cy="-594" rx="49.57" ry="18"/>
<text text-anchor="middle" x="1091.98" y="-588.58" font-family="Times,serif" font-size="14.00">Пельмени</text>
</g>
<!-- Фрукт&#45;&gt;Пельмени -->
<g id="edge33" class="edge">
<title>Фрукт&#45;&gt;Пельмени</title>
<path fill="none" stroke="black" d="M1050.5,-648.76C1056.95,-640.4 1064.96,-630.02 1072.22,-620.61"/>
<polygon fill="black" stroke="black" points="1074.88,-622.89 1078.22,-612.83 1069.34,-618.61 1074.88,-622.89"/>
</g>
<!-- Имеет шкалу -->
<g id="node36" class="node">
<title>Имеет шкалу</title>
<ellipse fill="none" stroke="black" cx="1221.98" cy="-594" rx="62.04" ry="18"/>
<text text-anchor="middle" x="1221.98" y="-588.58" font-family="Times,serif" font-size="14.00">Имеет шкалу</text>
</g>
<!-- Инструмент&#45;&gt;Имеет шкалу -->
<g id="edge35" class="edge">
<title>Инструмент&#45;&gt;Имеет шкалу</title>
<path fill="none" stroke="black" d="M1221.98,-647.7C1221.98,-640.41 1221.98,-631.73 1221.98,-623.54"/>
<polygon fill="black" stroke="black" points="1225.48,-623.62 1221.98,-613.62 1218.48,-623.62 1225.48,-623.62"/>
</g>
<!-- Хранит информацию -->
<g id="node41" class="node">
<title>Хранит информацию</title>
<ellipse fill="none" stroke="black" cx="1479.98" cy="-594" rx="93.48" ry="18"/>
<text text-anchor="middle" x="1479.98" y="-588.58" font-family="Times,serif" font-size="14.00">Хранит информацию</text>
</g>
<!-- Инструмент&#45;&gt;Хранит информацию -->
<g id="edge40" class="edge">
<title>Инструмент&#45;&gt;Хранит информацию</title>
<path fill="none" stroke="black" d="M1264.58,-653.44C1305.92,-642.22 1369.17,-625.06 1416.45,-612.24"/>
<polygon fill="black" stroke="black" points="1417.3,-615.63 1426.03,-609.64 1415.46,-608.88 1417.3,-615.63"/>
</g>
<!-- Линейка -->
<g id="node37" class="node">
<title>Линейка</title>
<ellipse fill="none" stroke="black" cx="1072.98" cy="-522" rx="44.58" ry="18"/>
<text text-anchor="middle" x="1072.98" y="-516.58" font-family="Times,serif" font-size="14.00">Линейка</text>
</g>
<!-- Имеет шкалу&#45;&gt;Линейка -->
<g id="edge36" class="edge">
<title>Имеет шкалу&#45;&gt;Линейка</title>
<path fill="none" stroke="black" d="M1190.38,-578.15C1167.31,-567.32 1135.92,-552.57 1111.4,-541.05"/>
<polygon fill="black" stroke="black" points="1112.92,-537.9 1102.38,-536.82 1109.94,-544.24 1112.92,-537.9"/>
</g>
<!-- Скрепляет объекты -->
<g id="node38" class="node">
<title>Скрепляет объекты</title>
<ellipse fill="none" stroke="black" cx="1221.98" cy="-522" rx="85.99" ry="18"/>
<text text-anchor="middle" x="1221.98" y="-516.58" font-family="Times,serif" font-size="14.00">Скрепляет объекты</text>
</g>
<!-- Имеет шкалу&#45;&gt;Скрепляет объекты -->
<g id="edge37" class="edge">
<title>Имеет шкалу&#45;&gt;Скрепляет объекты</title>
<path fill="none" stroke="black" d="M1221.98,-575.7C1221.98,-568.41 1221.98,-559.73 1221.98,-551.54"/>
<polygon fill="black" stroke="black" points="1225.48,-551.62 1221.98,-541.62 1218.48,-551.62 1225.48,-551.62"/>
</g>
<!-- Степлер -->
<g id="node39" class="node">
<title>Степлер</title>
<ellipse fill="none" stroke="black" cx="1115.98" cy="-450" rx="43.08" ry="18"/>
<text text-anchor="middle" x="1115.98" y="-444.57" font-family="Times,serif" font-size="14.00">Степлер</text>
</g>
<!-- Скрепляет объекты&#45;&gt;Степлер -->
<g id="edge38" class="edge">
<title>Скрепляет объекты&#45;&gt;Степлер</title>
<path fill="none" stroke="black" d="M1196.85,-504.41C1182.15,-494.7 1163.45,-482.35 1147.73,-471.97"/>
<polygon fill="black" stroke="black" points="1149.93,-469.23 1139.66,-466.64 1146.07,-475.07 1149.93,-469.23"/>
</g>
<!-- Молоток -->
<g id="node40" class="node">
<title>Молоток</title>
<ellipse fill="none" stroke="black" cx="1221.98" cy="-450" rx="45.08" ry="18"/>
<text text-anchor="middle" x="1221.98" y="-444.57" font-family="Times,serif" font-size="14.00">Молоток</text>
</g>
<!-- Скрепляет объекты&#45;&gt;Молоток -->
<g id="edge39" class="edge">
<title>Скрепляет объекты&#45;&gt;Молоток</title>
<path fill="none" stroke="black" d="M1221.98,-503.7C1221.98,-496.41 1221.98,-487.73 1221.98,-479.54"/>
<polygon fill="black" stroke="black" points="1225.48,-479.62 1221.98,-469.62 1218.48,-479.62 1225.48,-479.62"/>
</g>
<!-- Может звонить -->
<g id="node42" class="node">
<title>Может звонить</title>
<ellipse fill="none" stroke="black" cx="1479.98" cy="-522" rx="70.03" ry="18"/>
<text text-anchor="middle" x="1479.98" y="-516.58" font-family="Times,serif" font-size="14.00">Может звонить</text>
</g>
<!-- Хранит информацию&#45;&gt;Может звонить -->
<g id="edge41" class="edge">
<title>Хранит информацию&#45;&gt;Может звонить</title>
<path fill="none" stroke="black" d="M1479.98,-575.7C1479.98,-568.41 1479.98,-559.73 1479.98,-551.54"/>
<polygon fill="black" stroke="black" points="1483.48,-551.62 1479.98,-541.62 1476.48,-551.62 1483.48,-551.62"/>
</g>
<!-- Подключается к компьютеру -->
<g id="node47" class="node">
<title>Подключается к компьютеру</title>
<ellipse fill="none" stroke="black" cx="1847.98" cy="-522" rx="122.42" ry="18"/>
<text text-anchor="middle" x="1847.98" y="-516.58" font-family="Times,serif" font-size="14.00">Подключается к компьютеру</text>
</g>
<!-- Хранит информацию&#45;&gt;Подключается к компьютеру -->
<g id="edge46" class="edge">
<title>Хранит информацию&#45;&gt;Подключается к компьютеру</title>
<path fill="none" stroke="black" d="M1544.92,-580.65C1605.87,-569.05 1697.38,-551.65 1763.89,-539"/>
<polygon fill="black" stroke="black" points="1764.51,-542.44 1773.68,-537.13 1763.2,-535.56 1764.51,-542.44"/>
</g>
<!-- Телефон -->
<g id="node43" class="node">
<title>Телефон</title>
<ellipse fill="none" stroke="black" cx="1329.98" cy="-450" rx="44.58" ry="18"/>
<text text-anchor="middle" x="1329.98" y="-444.57" font-family="Times,serif" font-size="14.00">Телефон</text>
</g>
<!-- Может звонить&#45;&gt;Телефон -->
<g id="edge42" class="edge">
<title>Может звонить&#45;&gt;Телефон</title>
<path fill="none" stroke="black" d="M1447.43,-505.81C1424.31,-495.02 1393.17,-480.49 1368.76,-469.1"/>
<polygon fill="black" stroke="black" points="1370.33,-465.97 1359.79,-464.91 1367.37,-472.31 1370.33,-465.97"/>
</g>
<!-- Хранит информацию в письменном виде -->
<g id="node44" class="node">
<title>Хранит информацию в письменном виде</title>
<ellipse fill="none" stroke="black" cx="1563.98" cy="-450" rx="171.82" ry="18"/>
<text text-anchor="middle" x="1563.98" y="-444.57" font-family="Times,serif" font-size="14.00">Хранит информацию в письменном виде</text>
</g>
<!-- Может звонить&#45;&gt;Хранит информацию в письменном виде -->
<g id="edge43" class="edge">
<title>Может звонить&#45;&gt;Хранит информацию в письменном виде</title>
<path fill="none" stroke="black" d="M1499.88,-504.41C1510.22,-495.8 1523.05,-485.1 1534.51,-475.55"/>
<polygon fill="black" stroke="black" points="1536.73,-478.26 1542.17,-469.17 1532.25,-472.88 1536.73,-478.26"/>
</g>
<!-- Тетрадь -->
<g id="node45" class="node">
<title>Тетрадь</title>
<ellipse fill="none" stroke="black" cx="1512.98" cy="-378" rx="41.08" ry="18"/>
<text text-anchor="middle" x="1512.98" y="-372.57" font-family="Times,serif" font-size="14.00">Тетрадь</text>
</g>
<!-- Хранит информацию в письменном виде&#45;&gt;Тетрадь -->
<g id="edge44" class="edge">
<title>Хранит информацию в письменном виде&#45;&gt;Тетрадь</title>
<path fill="none" stroke="black" d="M1551.37,-431.7C1545.48,-423.61 1538.34,-413.81 1531.82,-404.87"/>
<polygon fill="black" stroke="black" points="1534.69,-402.87 1525.98,-396.85 1529.04,-406.99 1534.69,-402.87"/>
</g>
<!-- Флешка -->
<g id="node46" class="node">
<title>Флешка</title>
<ellipse fill="none" stroke="black" cx="1613.98" cy="-378" rx="41.58" ry="18"/>
<text text-anchor="middle" x="1613.98" y="-372.57" font-family="Times,serif" font-size="14.00">Флешка</text>
</g>
<!-- Хранит информацию в письменном виде&#45;&gt;Флешка -->
<g id="edge45" class="edge">
<title>Хранит информацию в письменном виде&#45;&gt;Флешка</title>
<path fill="none" stroke="black" d="M1576.34,-431.7C1582.11,-423.61 1589.11,-413.81 1595.5,-404.87"/>
<polygon fill="black" stroke="black" points="1598.26,-407.03 1601.22,-396.85 1592.56,-402.96 1598.26,-407.03"/>
</g>
<!-- Мышь компьютерная -->
<g id="node48" class="node">
<title>Мышь компьютерная</title>
<ellipse fill="none" stroke="black" cx="1847.98" cy="-450" rx="93.98" ry="18"/>
<text text-anchor="middle" x="1847.98" y="-444.57" font-family="Times,serif" font-size="14.00">Мышь компьютерная</text>
</g>
<!-- Подключается к компьютеру&#45;&gt;Мышь компьютерная -->
<g id="edge47" class="edge">
<title>Подключается к компьютеру&#45;&gt;Мышь компьютерная</title>
<path fill="none" stroke="black" d="M1847.98,-503.7C1847.98,-496.41 1847.98,-487.73 1847.98,-479.54"/>
<polygon fill="black" stroke="black" points="1851.48,-479.62 1847.98,-469.62 1844.48,-479.62 1851.48,-479.62"/>
</g>
<!-- Столовый прибор -->
<g id="node49" class="node">
<title>Столовый прибор</title>
<ellipse fill="none" stroke="black" cx="2039.98" cy="-450" rx="80.5" ry="18"/>
<text text-anchor="middle" x="2039.98" y="-444.57" font-family="Times,serif" font-size="14.00">Столовый прибор</text>
</g>
<!-- Подключается к компьютеру&#45;&gt;Столовый прибор -->
<g id="edge48" class="edge">
<title>Подключается к компьютеру&#45;&gt;Столовый прибор</title>
<path fill="none" stroke="black" d="M1892.51,-504.76C1921.12,-494.33 1958.39,-480.74 1988.31,-469.84"/>
<polygon fill="black" stroke="black" points="1989.35,-473.18 1997.54,-466.47 1986.95,-466.61 1989.35,-473.18"/>
</g>
<!-- Вилка -->
<g id="node50" class="node">
<title>Вилка</title>
<ellipse fill="none" stroke="black" cx="1980.98" cy="-378" rx="34.6" ry="18"/>
<text text-anchor="middle" x="1980.98" y="-372.57" font-family="Times,serif" font-size="14.00">Вилка</text>
</g>
<!-- Столовый прибор&#45;&gt;Вилка -->
<g id="edge49" class="edge">
<title>Столовый прибор&#45;&gt;Вилка</title>
<path fill="none" stroke="black" d="M2025.69,-432.05C2018.46,-423.47 2009.54,-412.89 2001.57,-403.44"/>
<polygon fill="black" stroke="black" points="2004.41,-401.38 1995.29,-395.99 1999.06,-405.89 2004.41,-401.38"/>
</g>
<!-- Часть одежды -->
<g id="node51" class="node">
<title>Часть одежды</title>
<ellipse fill="none" stroke="black" cx="2097.98" cy="-378" rx="64.54" ry="18"/>
<text text-anchor="middle" x="2097.98" y="-372.57" font-family="Times,serif" font-size="14.00">Часть одежды</text>
</g>
<!-- Столовый прибор&#45;&gt;Часть одежды -->
<g id="edge50" class="edge">
<title>Столовый прибор&#45;&gt;Часть одежды</title>
<path fill="none" stroke="black" d="M2054.02,-432.05C2060.85,-423.8 2069.22,-413.7 2076.82,-404.54"/>
<polygon fill="black" stroke="black" points="2079.41,-406.89 2083.1,-396.95 2074.02,-402.42 2079.41,-406.89"/>
</g>
<!-- Носок -->
<g id="node52" class="node">
<title>Носок</title>
<ellipse fill="none" stroke="black" cx="2002.98" cy="-306" rx="34.6" ry="18"/>
<text text-anchor="middle" x="2002.98" y="-300.57" font-family="Times,serif" font-size="14.00">Носок</text>
</g>
<!-- Часть одежды&#45;&gt;Носок -->
<g id="edge51" class="edge">
<title>Часть одежды&#45;&gt;Носок</title>
<path fill="none" stroke="black" d="M2075.94,-360.76C2062.63,-350.96 2045.54,-338.36 2031.24,-327.83"/>
<polygon fill="black" stroke="black" points="2033.66,-325.26 2023.53,-322.15 2029.51,-330.9 2033.66,-325.26"/>
</g>
<!-- Это огромэто огромный объект? -->
<g id="node53" class="node">
<title>Это огромэто огромный объект?</title>
<ellipse fill="none" stroke="black" cx="2191.98" cy="-306" rx="136.89" ry="18"/>
<text text-anchor="middle" x="2191.98" y="-300.57" font-family="Times,serif" font-size="14.00">Это огромэто огромный объект?</text>
</g>
<!-- Часть одежды&#45;&gt;Это огромэто огромный объект? -->
<g id="edge52" class="edge">
<title>Часть одежды&#45;&gt;Это огромэто огромный объект?</title>
<path fill="none" stroke="black" d="M2119.78,-360.76C2131.65,-351.92 2146.56,-340.82 2159.75,-331"/>
<polygon fill="black" stroke="black" points="2161.84,-333.81 2167.77,-325.03 2157.66,-328.19 2161.84,-333.81"/>
</g>
<!-- Вселенная -->
<g id="node54" class="node">
<title>Вселенная</title>
<ellipse fill="none" stroke="black" cx="2135.98" cy="-234" rx="51.56" ry="18"/>
<text text-anchor="middle" x="2135.98" y="-228.57" font-family="Times,serif" font-size="14.00">Вселенная</text>
</g>
<!-- Это огромэто огромный объект?&#45;&gt;Вселенная -->
<g id="edge53" class="edge">
<title>Это огромэто огромный объект?&#45;&gt;Вселенная</title>
<path fill="none" stroke="black" d="M2178.13,-287.7C2171.59,-279.52 2163.66,-269.6 2156.44,-260.58"/>
<polygon fill="black" stroke="black" points="2159.2,-258.43 2150.22,-252.8 2153.73,-262.8 2159.2,-258.43"/>
</g>
<!-- Человек -->
<g id="node55" class="node">
<title>Человек</title>
<ellipse fill="none" stroke="black" cx="2247.98" cy="-234" rx="42.58" ry="18"/>
<text text-anchor="middle" x="2247.98" y="-228.57" font-family="Times,serif" font-size="14.00">Человек</text>
</g>
<!-- Это огромэто огромный объект?&#45;&gt;Человек -->
<g id="edge54" class="edge">
<title>Это огромэто огромный объект?&#45;&gt;Человек</title>
<path fill="none" stroke="black" d="M2205.82,-287.7C2212.52,-279.32 2220.7,-269.1 2228.06,-259.9"/>
<polygon fill="black" stroke="black" points="2230.6,-262.32 2234.11,-252.33 2225.13,-257.95 2230.6,-262.32"/>
</g>
<!-- Владимир Владимирович Путин -->
<g id="node56" class="node">
<title>Владимир Владимирович Путин</title>
<ellipse fill="none" stroke="black" cx="2129.98" cy="-162" rx="136.89" ry="18"/>
<text text-anchor="middle" x="2129.98" y="-156.57" font-family="Times,serif" font-size="14.00">Владимир Владимирович Путин</text>
</g>
<!-- Человек&#45;&gt;Владимир Владимирович Путин -->
<g id="edge55" class="edge">
<title>Человек&#45;&gt;Владимир Владимирович Путин</title>
<path fill="none" stroke="black" d="M2224.1,-218.83C2208.07,-209.33 2186.62,-196.6 2168.23,-185.7"/>
<polygon fill="black" stroke="black" points="2170.08,-182.72 2159.7,-180.63 2166.51,-188.74 2170.08,-182.72"/>
</g>
<!-- Сделано из стекла -->
<g id="node57" class="node">
<title>Сделано из стекла</title>
<ellipse fill="none" stroke="black" cx="2365.98" cy="-162" rx="81.5" ry="18"/>
<text text-anchor="middle" x="2365.98" y="-156.57" font-family="Times,serif" font-size="14.00">Сделано из стекла</text>
</g>
<!-- Человек&#45;&gt;Сделано из стекла -->
<g id="edge56" class="edge">
<title>Человек&#45;&gt;Сделано из стекла</title>
<path fill="none" stroke="black" d="M2271.85,-218.83C2288.18,-209.15 2310.15,-196.12 2328.75,-185.08"/>
<polygon fill="black" stroke="black" points="2330.29,-188.24 2337.11,-180.13 2326.72,-182.22 2330.29,-188.24"/>
</g>
<!-- Окно -->
<g id="node58" class="node">
<title>Окно</title>
<ellipse fill="none" stroke="black" cx="2314.98" cy="-90" rx="31.6" ry="18"/>
<text text-anchor="middle" x="2314.98" y="-84.58" font-family="Times,serif" font-size="14.00">Окно</text>
</g>
<!-- Сделано из стекла&#45;&gt;Окно -->
<g id="edge57" class="edge">
<title>Сделано из стекла&#45;&gt;Окно</title>
<path fill="none" stroke="black" d="M2353.63,-144.05C2347.5,-135.65 2339.98,-125.32 2333.21,-116.02"/>
<polygon fill="black" stroke="black" points="2336.12,-114.07 2327.4,-108.05 2330.46,-118.2 2336.12,-114.07"/>
</g>
<!-- маленькая -->
<g id="node59" class="node">
<title>маленькая</title>
<ellipse fill="none" stroke="black" cx="2415.98" cy="-90" rx="51.06" ry="18"/>
<text text-anchor="middle" x="2415.98" y="-84.58" font-family="Times,serif" font-size="14.00">маленькая</text>
</g>
<!-- Сделано из стекла&#45;&gt;маленькая -->
<g id="edge58" class="edge">
<title>Сделано из стекла&#45;&gt;маленькая</title>
<path fill="none" stroke="black" d="M2378.08,-144.05C2383.85,-135.97 2390.89,-126.12 2397.32,-117.11"/>
<polygon fill="black" stroke="black" points="2400.14,-119.19 2403.1,-109.02 2394.44,-115.12 2400.14,-119.19"/>
</g>
<!-- молекула -->
<g id="node60" class="node">
<title>молекула</title>
<ellipse fill="none" stroke="black" cx="2364.98" cy="-18" rx="46.57" ry="18"/>
<text text-anchor="middle" x="2364.98" y="-12.57" font-family="Times,serif" font-size="14.00">молекула</text>
</g>
<!-- маленькая&#45;&gt;молекула -->
<g id="edge59" class="edge">
<title>маленькая&#45;&gt;молекула</title>
<path fill="none" stroke="black" d="M2403.63,-72.05C2397.68,-63.89 2390.41,-53.91 2383.79,-44.82"/>
<polygon fill="black" stroke="black" points="2386.82,-43.03 2378.1,-37.01 2381.16,-47.16 2386.82,-43.03"/>
</g>
<!-- абобус -->
<g id="node61" class="node">
<title>абобус</title>
<ellipse fill="none" stroke="black" cx="2465.98" cy="-18" rx="36.09" ry="18"/>
<text text-anchor="middle" x="2465.98" y="-12.57" font-family="Times,serif" font-size="14.00">абобус</text>
</g>
<!-- маленькая&#45;&gt;абобус -->
<g id="edge60" class="edge">
<title>маленькая&#45;&gt;абобус</title>
<path fill="none" stroke="black" d="M2428.08,-72.05C2434,-63.77 2441.25,-53.62 2447.82,-44.42"/>
<polygon fill="black" stroke="black" points="2450.48,-46.71 2453.45,-36.54 2444.79,-42.64 2450.48,-46.71"/>
</g>
</g>
</svg>
