<?xml version="1.0" encoding="UTF-8" standalone="no"?>
<!DOCTYPE svg PUBLIC "-//W3C//DTD SVG 1.1//EN"
 "http://www.w3.org/Graphics/SVG/1.1/DTD/svg11.dtd">
<!-- Generated by graphviz version 10.0.1 (0)
 -->
<!-- Pages: 1 -->
<svg width="371pt" height="188pt"
 viewBox="0.00 0.00 370.50 188.00" xmlns="http://www.w3.org/2000/svg" xmlns:xlink="http://www.w3.org/1999/xlink">
<g id="graph0" class="graph" transform="scale(1 1) rotate(0) translate(4 184)">
<polygon fill="white" stroke="none" points="-4,4 -4,-184 366.5,-184 366.5,4 -4,4"/>
<!-- животное -->
<g id="node1" class="node">
<title>животное</title>
<ellipse fill="none" stroke="black" cx="164.89" cy="-162" rx="46.43" ry="18"/>
<text text-anchor="middle" x="164.89" y="-155.82" font-family="Times,serif" font-size="14.00">животное</text>
</g>
<!-- лает -->
<g id="node2" class="node">
<title>лает</title>
<ellipse fill="none" stroke="black" cx="118.89" cy="-90" rx="27" ry="18"/>
<text text-anchor="middle" x="118.89" y="-83.83" font-family="Times,serif" font-size="14.00">лает</text>
</g>
<!-- животное&#45;&gt;лает -->
<g id="edge1" class="edge">
<title>животное&#45;&gt;лает</title>
<path fill="none" stroke="black" d="M153.75,-144.05C148.29,-135.73 141.59,-125.54 135.53,-116.32"/>
<polygon fill="black" stroke="black" points="138.54,-114.53 130.12,-108.09 132.69,-118.37 138.54,-114.53"/>
</g>
<!-- еда -->
<g id="node5" class="node">
<title>еда</title>
<ellipse fill="none" stroke="black" cx="211.89" cy="-90" rx="27" ry="18"/>
<text text-anchor="middle" x="211.89" y="-83.83" font-family="Times,serif" font-size="14.00">еда</text>
</g>
<!-- животное&#45;&gt;еда -->
<g id="edge4" class="edge">
<title>животное&#45;&gt;еда</title>
<path fill="none" stroke="black" d="M176.27,-144.05C181.85,-135.73 188.7,-125.54 194.89,-116.32"/>
<polygon fill="black" stroke="black" points="197.75,-118.34 200.42,-108.09 191.94,-114.44 197.75,-118.34"/>
</g>
<!-- Собака -->
<g id="node3" class="node">
<title>Собака</title>
<ellipse fill="none" stroke="black" cx="36.89" cy="-18" rx="36.89" ry="18"/>
<text text-anchor="middle" x="36.89" y="-11.82" font-family="Times,serif" font-size="14.00">Собака</text>
</g>
<!-- лает&#45;&gt;Собака -->
<g id="edge2" class="edge">
<title>лает&#45;&gt;Собака</title>
<path fill="none" stroke="black" d="M102.69,-75.17C91.39,-65.52 76.06,-52.44 63.04,-41.33"/>
<polygon fill="black" stroke="black" points="65.5,-38.83 55.63,-35 60.96,-44.15 65.5,-38.83"/>
</g>
<!-- Кот -->
<g id="node4" class="node">
<title>Кот</title>
<ellipse fill="none" stroke="black" cx="118.89" cy="-18" rx="27" ry="18"/>
<text text-anchor="middle" x="118.89" y="-11.82" font-family="Times,serif" font-size="14.00">Кот</text>
</g>
<!-- лает&#45;&gt;Кот -->
<g id="edge3" class="edge">
<title>лает&#45;&gt;Кот</title>
<path fill="none" stroke="black" d="M118.89,-71.7C118.89,-64.41 118.89,-55.73 118.89,-47.54"/>
<polygon fill="black" stroke="black" points="122.39,-47.62 118.89,-37.62 115.39,-47.62 122.39,-47.62"/>
</g>
<!-- Пельмени -->
<g id="node6" class="node">
<title>Пельмени</title>
<ellipse fill="none" stroke="black" cx="211.89" cy="-18" rx="47.86" ry="18"/>
<text text-anchor="middle" x="211.89" y="-11.82" font-family="Times,serif" font-size="14.00">Пельмени</text>
</g>
<!-- еда&#45;&gt;Пельмени -->
<g id="edge5" class="edge">
<title>еда&#45;&gt;Пельмени</title>
<path fill="none" stroke="black" d="M211.89,-71.7C211.89,-64.41 211.89,-55.73 211.89,-47.54"/>
<polygon fill="black" stroke="black" points="215.39,-47.62 211.89,-37.62 208.39,-47.62 215.39,-47.62"/>
</g>
<!-- Линейка -->
<g id="node7" class="node">
<title>Линейка</title>
<ellipse fill="none" stroke="black" cx="319.89" cy="-18" rx="42.61" ry="18"/>
<text text-anchor="middle" x="319.89" y="-11.82" font-family="Times,serif" font-size="14.00">Линейка</text>
</g>
<!-- еда&#45;&gt;Линейка -->
<g id="edge6" class="edge">
<title>еда&#45;&gt;Линейка</title>
<path fill="none" stroke="black" d="M230.7,-76.81C246.38,-66.65 269.06,-51.94 287.63,-39.91"/>
<polygon fill="black" stroke="black" points="289.42,-42.92 295.9,-34.55 285.61,-37.05 289.42,-42.92"/>
</g>
</g>
</svg>
